<?xml version="1.0" standalone="no"?><!DOCTYPE svg PUBLIC "-//W3C//DTD SVG 1.1//EN" "http://www.w3.org/Graphics/SVG/1.1/DTD/svg11.dtd"><svg t="1673592226412" class="icon" viewBox="0 0 1024 1024" version="1.1" xmlns="http://www.w3.org/2000/svg" p-id="8923" xmlns:xlink="http://www.w3.org/1999/xlink" width="200" height="200"><path d="M805.546667 421.546667l-1.706667-6.826667c0-158.72-129.706667-288.426667-288.426667-288.426667-158.72 0-288.426667 129.706667-288.426666 288.426667l-8.533334 6.826667C112.64 447.146667 34.133333 542.72 34.133333 657.066667c0 133.12 107.52 240.64 240.64 240.64H750.933333c133.12 0 238.933333-107.52 238.933334-240.64 0-114.346667-78.506667-209.92-184.32-235.52z m-95.573334 155.306666L535.893333 749.226667c-3.413333 1.706667-5.12 3.413333-8.533333 5.12-3.413333 1.706667-8.533333 3.413333-13.653333 3.413333-5.12 0-8.533333-1.706667-13.653334-3.413333-3.413333-1.706667-8.533333-3.413333-11.946666-6.826667L324.266667 580.266667c-6.826667-6.826667-10.24-15.36-10.24-23.893334 0-8.533333 3.413333-17.066667 10.24-23.893333 13.653333-13.653333 34.133333-13.653333 47.786666 0l109.226667 109.226667V397.653333c0-18.773333 15.36-34.133333 34.133333-34.133333s34.133333 15.36 34.133334 34.133333v244.053334l112.64-112.64c6.826667-6.826667 15.36-10.24 23.893333-10.24 8.533333 0 17.066667 3.413333 23.893333 10.24 6.826667 6.826667 10.24 15.36 10.24 23.893333s-3.413333 17.066667-10.24 23.893333z" fill="#333333" p-id="8924"></path></svg>