<svg t="1677665091859" class="icon" viewBox="0 0 1024 1024" version="1.1" xmlns="http://www.w3.org/2000/svg" p-id="9921" width="200" height="200"><path d="M760.448 856.672A85.344 85.344 0 0 1 676.288 928H181.312A85.344 85.344 0 0 1 96 842.656V252.64c0-42.688 31.36-78.08 72.32-84.352-0.64 4.256-0.992 8.64-0.992 13.056v590.016a85.344 85.344 0 0 0 85.312 85.312h507.84zM323.968 96H818.88a85.344 85.344 0 0 1 85.344 85.344v518.72a85.344 85.344 0 0 1-85.344 85.312H323.968a85.344 85.344 0 0 1-85.344-85.344V181.312A85.344 85.344 0 0 1 323.968 96z"  p-id="9922"></path></svg>
